<?xml version="1.0" encoding="UTF-8" standalone="no"?>
<svg
   xmlns:osb="http://www.openswatchbook.org/uri/2009/osb"
   xmlns:dc="http://purl.org/dc/elements/1.1/"
   xmlns:cc="http://creativecommons.org/ns#"
   xmlns:rdf="http://www.w3.org/1999/02/22-rdf-syntax-ns#"
   xmlns:svg="http://www.w3.org/2000/svg"
   xmlns="http://www.w3.org/2000/svg"
   xmlns:xlink="http://www.w3.org/1999/xlink"
   xmlns:sodipodi="http://sodipodi.sourceforge.net/DTD/sodipodi-0.dtd"
   xmlns:inkscape="http://www.inkscape.org/namespaces/inkscape"
   version="1.1"
   width="135.4711"
   height="123.10773"
   viewBox="0 0 27.09422 24.621545"
   id="svg2"
   inkscape:version="0.48.3.1 r9886"
   sodipodi:docname="logo.svg">
  <metadata
     id="metadata30">
    <rdf:RDF>
      <cc:Work
         rdf:about="">
        <dc:format>image/svg+xml</dc:format>
        <dc:type
           rdf:resource="http://purl.org/dc/dcmitype/StillImage" />
        <dc:title />
      </cc:Work>
    </rdf:RDF>
  </metadata>
  <defs
     id="defs28">
    <linearGradient
       id="linearGradient5676"
       osb:paint="solid">
      <stop
         style="stop-color:#000000;stop-opacity:1;"
         offset="0"
         id="stop5678" />
    </linearGradient>
    <linearGradient
       id="linearGradient3770"
       osb:paint="gradient">
      <stop
         style="stop-color:#fd0013;stop-opacity:1;"
         offset="0"
         id="stop3772" />
      <stop
         id="stop5682"
         offset="1"
         style="stop-color:#00ff11;stop-opacity:1;" />
    </linearGradient>
    <linearGradient
       id="linearGradient3851">
      <stop
         id="stop3853"
         offset="0"
         style="stop-color:#ffd2ae;stop-opacity:1;" />
      <stop
         style="stop-color:#866d5a;stop-opacity:1;"
         offset="0.73731929"
         id="stop3000" />
      <stop
         id="stop3855"
         offset="1"
         style="stop-color:#0e0906;stop-opacity:1;" />
    </linearGradient>
    <linearGradient
       id="linearGradient3835">
      <stop
         style="stop-color:#fff4f4;stop-opacity:1;"
         offset="0"
         id="stop3837" />
      <stop
         id="stop2992"
         offset="0.13607773"
         style="stop-color:#dfbdb2;stop-opacity:1;" />
      <stop
         id="stop2990"
         offset="0.3051413"
         style="stop-color:#d38d5f;stop-opacity:1;" />
      <stop
         style="stop-color:#c27b4d;stop-opacity:1;"
         offset="0.42762372"
         id="stop2994" />
      <stop
         id="stop2996"
         offset="0.77653676"
         style="stop-color:#793d17;stop-opacity:1;" />
      <stop
         style="stop-color:#f4d6c3;stop-opacity:1;"
         offset="1"
         id="stop3839" />
    </linearGradient>
    <radialGradient
       inkscape:collect="always"
       xlink:href="#linearGradient3835"
       id="radialGradient3841"
       cx="-9.131321"
       cy="18.616291"
       fx="-9.131321"
       fy="18.616291"
       r="13.247109"
       gradientTransform="matrix(0.95103502,1.0130568,-1.6080211,1.5095737,49.566357,-9.5971053)"
       gradientUnits="userSpaceOnUse" />
  </defs>
  <sodipodi:namedview
     pagecolor="#ffffff"
     bordercolor="#666666"
     borderopacity="1"
     objecttolerance="10"
     gridtolerance="10"
     guidetolerance="10"
     inkscape:pageopacity="0"
     inkscape:pageshadow="2"
     inkscape:window-width="1877"
     inkscape:window-height="1053"
     id="namedview26"
     showgrid="false"
     inkscape:zoom="5.9172412"
     inkscape:cx="65.155526"
     inkscape:cy="61.703149"
     inkscape:window-x="0"
     inkscape:window-y="0"
     inkscape:window-maximized="1"
     inkscape:current-layer="svg2"
     fit-margin-top="0"
     fit-margin-left="0"
     fit-margin-right="0"
     fit-margin-bottom="0" />
  <path
     style="fill:url(#radialGradient3841);fill-opacity:1;fill-rule:nonzero;stroke:#000000;stroke-width:0.59999999999999998;stroke-linejoin:round;stroke-miterlimit:4;stroke-opacity:0.55938697;stroke-dasharray:none;marker-start:none;opacity:1;stroke-dashoffset:0"
     inkscape:connector-curvature="0"
     id="path24"
     d="M 3.217,0.57075342 C 2.573,1.0207534 1.771999,1.9607538 1.007,3.1607538 c -0.59799999,0.92 -0.70699999,1.18 -0.70699999,1.65 0,0.3 0.062,0.6 0.120999,0.63 0.074,0.05 0.097,0.19 0.062,0.31 -0.120999,0.38 0.195,0.72 0.86300099,0.92 0.946,0.29 1.118,0.23 1.457,-0.62 0.254,-0.63 0.887,-1.4 1.152999,-1.4 0.051,0 0.269,0.37 0.488,0.82 0.34,0.72 0.3869995,0.97 0.4139995,1.92 0.047,1.52 0.6170006,2.9000002 1.5160016,3.6500002 0.816,0.68 1.449,1.15 1.558,1.15 0.059,0 0.18,0.07 0.253999,0.17 0.086,0.09 0.436001,0.31 0.806001,0.49 0.36,0.16 0.66,0.34 0.66,0.38 0,0.04 -0.19,0.46 -0.42,0.94 -0.23,0.47 -0.42,1.02 -0.42,1.21 0,0.2 -0.16,0.65 -0.360001,0.99 -0.192,0.34 -0.425999,0.89 -0.507999,1.2 -0.121,0.5 -0.109,0.61 0.059,0.8 0.109,0.11 0.194999,0.35 0.194999,0.51 0,0.17 0.086,0.41 0.184,0.55 0.097,0.12 0.179001,0.33 0.179001,0.43 0,0.2 0.571,1.44 0.721,1.56 0.22,0.18 0.7399999,1.12 0.68,1.22 -0.04,0.06 -0.3,0.17 -0.56,0.24 -0.54,0.14 -0.73,0.41 -0.46,0.66 0.25,0.23 1.5299999,0.68 1.9299999,0.68 0.67,0 1.7,-0.64 1.7,-1.05 0,-0.09 -0.19,-0.36 -0.42,-0.59 -0.5,-0.5 -1.4,-1.81 -1.4,-2.03 0,-0.09 -0.12,-0.36 -0.27,-0.59 -0.37,-0.58 -0.5999999,-1.18 -0.6699999,-1.75 -0.06,-0.43 -0.02,-0.49 0.6699999,-1.15 0.4,-0.39 0.81,-0.87 0.92,-1.08 0.11,-0.22 0.27,-0.39 0.35,-0.39 0.09,0 0.47,0.6 0.84,1.33 0.4,0.73 1.13,1.93 1.67,2.66 0.58,0.8 1.06,1.59 1.18,1.99 0.12,0.35 0.26,0.68 0.34,0.73 0.19,0.13 -0.42,0.56 -1.05,0.71 -0.33,0.09 -0.58,0.2 -0.58,0.25 0,0.03 0.23,0.26 0.52,0.5 0.49,0.41 0.56,0.43 1.81,0.52 1.15,0.07 1.33,0.06 1.39,-0.11 0.04,-0.13 0.22,-0.2 0.46,-0.21 0.21,0 0.71,-0.12 1.1,-0.28 0.82,-0.32 0.77,-0.19 1.02,-2.26 0.19,-1.49 0.0848,-3.4 -0.0452,-4.27 -0.1,-0.68 0.205198,-1.44 0.475198,-1.44 0.17,0 0.93,0.72 1.44,1.36 0.58,0.73 1.08,1.65 1.29,2.41 0.43,1.41 0.53,1.7 0.64,1.76 0.06,0.05 0.11,0.25 0.11,0.46 0,0.32 -0.08,0.44 -0.39,0.6 -0.22,0.11 -0.54,0.22 -0.71,0.24 -0.39,0.05 -0.5,0.55 -0.17,0.79 0.31,0.22 2.04,0.21 2.82,-0.02 1.03,-0.32 1.16,-0.92 0.38,-1.97 -0.28,-0.38 -0.86,-1.42 -1.29,-2.32 -0.66,-1.38 -0.79,-1.76 -0.85,-2.48 -0.08,-0.79 -0.11,-0.88 -0.43,-1.06 -0.3,-0.17 -0.34,-0.24 -0.27,-0.56 0.03,-0.2 0.14,-1 0.24,-1.76 0.08,-0.76 0.21,-1.69 0.25,-2.04 l 0.09,-0.63 0.46,0 c 0.44,0 0.47,-0.03 0.47,-0.34 0,-0.3900002 -0.31,-0.7900002 -1.03,-1.3200002 -0.27,-0.19 -0.53,-0.42 -0.59,-0.52 -0.07,-0.08 -0.28,-0.36 -0.5,-0.61 -0.41,-0.44 -1.28,-2 -1.28,-2.27 0,-0.07 -0.35,-0.51 -0.78,-0.94 -0.58,-0.61 -0.99,-0.92 -1.69,-1.23 -0.93,-0.44 -1.21,-0.49 -1.89,-0.36 -0.3,0.07 -0.44,0.2 -0.63,0.61 -0.17,0.39 -0.35,0.59 -0.66,0.72 l -0.42,0.17 -0.5,-0.52 c -0.62,-0.68 -1.13,-0.93 -1.98,-0.93 -0.57,0 -0.73,0.05 -1.08,0.37 -0.36,0.3 -0.45,0.51 -0.64,1.36 -0.27,1.36 -0.47,1.8 -0.77,1.8 -0.14,0 -0.28,0.04 -0.32,0.12 -0.11,0.18 -1.4299999,0.14 -1.9180009,-0.06 -0.241999,-0.1 -0.741999,-0.48 -1.105999,-0.83 -0.534999,-0.52 -0.706999,-0.8 -0.875,-1.37 -0.281,-0.95 -0.281,-2.59 0,-2.7800004 0.266001,-0.21 0.243001,-0.63999998 -0.039,-0.78999998 -0.132,-0.07 -0.531001,-0.12 -0.898001,-0.12 -0.3629996,0 -0.8630001,-0.09 -1.0940001,-0.19 C 3.702,0.23075242 3.714,0.23075242 3.217,0.57075342 z M 16.877,14.030754 c 0.12,1.05 0.19,1.18 1.01,2.06 0.4,0.42 0.84,1.02 0.99,1.31 0.27,0.51 0.27,0.58 0.13,1.82 -0.21,1.98 -0.5,3.17 -0.81,3.38 -0.25,0.17 -0.31,0.15 -0.75,-0.21 -0.26,-0.2 -0.63,-0.67 -0.82,-1.01 -0.18,-0.35 -0.44,-0.76 -0.56,-0.93 -0.12,-0.17 -0.38,-0.76 -0.57,-1.34 -0.19,-0.57 -0.46,-1.33 -0.6,-1.7 -0.23,-0.65 -0.67,-2.43 -0.81,-3.31 l -0.07,-0.45 0.58,-0.02 c 0.31,0 0.8,-0.07 1.07,-0.17 0.26,-0.08 0.63,-0.15 0.81,-0.17 0.31,-0.01 0.32,0.03 0.4,0.74 z"
     sodipodi:nodetypes="ccsccccscccsccscscccscsccccssssccccscccccscccccccscccsccccccccccccsscccscccccccsccsccccccscccccccccscccccccc" />
</svg>
